<?xml version="1.0" encoding="UTF-8"?>
<svg version="1.1" xmlns="http://www.w3.org/2000/svg" width="1465" height="180">
<path d="M0 0 C1.28519531 -0.00515625 2.57039062 -0.0103125 3.89453125 -0.015625 C4.56307129 -0.00724609 5.23161133 0.00113281 5.92041016 0.00976562 C7.96247181 0.03118415 10.00101638 0.00996708 12.04296875 -0.015625 C13.97076172 -0.00789063 13.97076172 -0.00789063 15.9375 0 C17.70770508 0.00676758 17.70770508 0.00676758 19.51367188 0.01367188 C22.46875 0.53125 22.46875 0.53125 24.04907227 2.22108459 C25.63923287 4.80866763 26.37472656 7.07312308 27.13867188 10.01147461 C27.42907349 11.11039536 27.7194751 12.2093161 28.01867676 13.34153748 C28.32188843 14.52691605 28.6251001 15.71229462 28.9375 16.93359375 C29.25908081 18.16227676 29.58066162 19.39095978 29.9119873 20.65687561 C30.76572439 23.92667258 31.61132133 27.19836373 32.45330811 30.47119141 C33.13351855 33.10729886 33.82177415 35.7412714 34.51052094 38.37515926 C37.65258698 50.39443786 40.73165789 62.41233227 43.46875 74.53125 C43.79875 74.53125 44.12875 74.53125 44.46875 74.53125 C44.60576324 73.9787558 44.74277649 73.4262616 44.88394165 72.85702515 C46.34162043 66.98123494 47.80292269 61.1063536 49.26611328 55.23193359 C49.80801413 53.05441933 50.34906265 50.87669273 50.88916016 48.69873047 C52.46270653 42.35473066 54.05257464 36.0152173 55.66711426 29.68151855 C56.20527315 27.56666145 56.73964711 25.4508379 57.27038574 23.33410645 C58.03842963 20.28398281 58.82517455 17.23928811 59.6171875 14.1953125 C59.84516022 13.27761078 60.07313293 12.35990906 60.30801392 11.41439819 C62.51940786 3.0710115 62.51940786 3.0710115 66.46875 0.53125 C69.44555664 0.01367188 69.44555664 0.01367188 72.87890625 0 C74.73418945 -0.00773437 74.73418945 -0.00773437 76.62695312 -0.015625 C77.91537109 -0.00015625 79.20378906 0.0153125 80.53125 0.03125 C81.82353516 0.01578125 83.11582031 0.0003125 84.44726562 -0.015625 C85.68283203 -0.01046875 86.91839844 -0.0053125 88.19140625 0 C89.32328369 0.00451172 90.45516113 0.00902344 91.62133789 0.01367188 C94.46875 0.53125 94.46875 0.53125 96.31982422 2.17626953 C97.7666303 5.14182232 97.96453513 7.44375916 98.12890625 10.7421875 C98.19932129 12.02730225 98.26973633 13.31241699 98.34228516 14.63647461 C98.40572596 16.05971297 98.46869933 17.48297224 98.53125 18.90625 C98.60627131 20.39531377 98.6823066 21.88432674 98.75927734 23.37329102 C98.96881952 27.51491163 99.15845613 31.65724972 99.34442139 35.79998779 C99.47390059 38.64439871 99.60947585 41.48846644 99.74658203 44.33251953 C100.03769455 50.37753956 100.31766735 56.42302675 100.59375 62.46875 C100.63831329 63.42795349 100.68287659 64.38715698 100.72879028 65.37542725 C101.31318332 78.10884308 101.55459281 90.78359309 101.46875 103.53125 C95.19875 103.53125 88.92875 103.53125 82.46875 103.53125 C81.76899529 95.62925801 81.23937459 87.75440483 80.93359375 79.828125 C80.86912804 78.2076828 80.86912804 78.2076828 80.80335999 76.55450439 C80.71379882 74.2789032 80.6256367 72.00324655 80.53881836 69.72753906 C80.40816931 66.33114503 80.26977135 62.93512728 80.13085938 59.5390625 C79.55180216 44.86321893 79.34590335 30.21791354 79.46875 15.53125 C78.80875 15.86125 78.14875 16.19125 77.46875 16.53125 C76.77376584 18.662679 76.18981025 20.83046643 75.65283203 23.00708008 C75.48340088 23.68355087 75.31396973 24.36002167 75.1394043 25.05699158 C74.77141491 26.52992832 74.40711482 28.00379044 74.04602432 29.47843361 C73.47352984 31.81314888 72.89000367 34.14484287 72.30319214 36.47599792 C70.63636828 43.10574243 68.9890565 49.74027242 67.35107422 56.37719727 C66.34908909 60.43379957 65.33348787 64.48679814 64.30965805 68.53793907 C63.92238869 70.08234079 63.54047918 71.62809687 63.16406631 73.17518044 C62.63656195 75.3425978 62.09194514 77.50504907 61.54345703 79.66723633 C61.23860382 80.89888016 60.93375061 82.13052399 60.61965942 83.39949036 C59.39115549 86.74239377 58.24187191 88.33604451 55.46875 90.53125 C51.67308052 91.34053355 47.84115974 91.13433629 43.96875 91.09375 C42.40060547 91.12952148 42.40060547 91.12952148 40.80078125 91.16601562 C39.79402344 91.16408203 38.78726563 91.16214844 37.75 91.16015625 C36.83283203 91.16088135 35.91566406 91.16160645 34.97070312 91.16235352 C31.43200722 90.2697375 30.52642049 88.48885523 28.46875 85.53125 C27.4384613 82.85351562 27.4384613 82.85351562 26.68530273 79.9375 C26.39497665 78.83865479 26.10465057 77.73980957 25.80552673 76.60766602 C25.50747635 75.42744873 25.20942596 74.24723145 24.90234375 73.03125 C24.58217789 71.80398193 24.26201202 70.57671387 23.93214417 69.31225586 C23.08413497 66.05125707 22.2472933 62.78779551 21.41552734 59.52264404 C20.74269168 56.89169855 20.0592849 54.26355918 19.37516689 51.63552856 C16.25131095 39.63386298 13.20567813 27.62779076 10.46875 15.53125 C9.80875 15.53125 9.14875 15.53125 8.46875 15.53125 C8.47365952 16.17158173 8.47856903 16.81191345 8.48362732 17.47164917 C8.59006789 33.70900029 8.3057435 49.8997326 7.66918945 66.12451172 C7.52888082 69.71690929 7.39777931 73.30956696 7.26757812 76.90234375 C7.1802199 79.21877014 7.09234915 81.53517727 7.00390625 83.8515625 C6.94602684 85.43905807 6.94602684 85.43905807 6.88697815 87.05862427 C6.84701218 88.05522064 6.8070462 89.05181702 6.76586914 90.07861328 C6.73255997 90.94173126 6.69925079 91.80484924 6.66493225 92.69412231 C6.41422462 96.31977934 5.91953126 99.92499995 5.46875 103.53125 C-0.80125 103.53125 -7.07125 103.53125 -13.53125 103.53125 C-13.02605905 82.71206486 -12.35429309 61.90290143 -11.53125 41.09375 C-11.48945618 40.01716125 -11.44766235 38.94057251 -11.40460205 37.83135986 C-11.17293053 31.89184572 -10.926573 25.95341721 -10.64746094 20.01593018 C-10.57425752 18.4507842 -10.5041568 16.88548705 -10.43847656 15.32000732 C-10.35877344 13.48218983 -10.25853035 11.64529308 -10.15625 9.80859375 C-10.10726562 8.86105225 -10.05828125 7.91351074 -10.0078125 6.93725586 C-8.78564043 0.76691477 -5.93296858 0.02268202 0 0 Z " fill="#EAEAEA" transform="translate(604.53125,46.46875)"/>
<path d="M0 0 C0.90186539 -0.01283524 1.80373077 -0.02567047 2.73292542 -0.03889465 C3.69754196 -0.04628159 4.66215851 -0.05366852 5.65600586 -0.0612793 C7.1675248 -0.07338692 7.1675248 -0.07338692 8.70957947 -0.08573914 C10.84201351 -0.09955033 12.97446938 -0.1102857 15.10693359 -0.11816406 C17.27041174 -0.12965385 19.43386222 -0.15005766 21.59716797 -0.1796875 C48.60855051 -0.54931042 48.60855051 -0.54931042 56.53686523 6.02490234 C63.49916525 13.00851931 64.5842384 20.71332514 64.68334961 30.17700195 C64.51758493 44.5926612 64.51758493 44.5926612 59.50366211 50.19262695 C56.10525359 53.347376 52.84282276 55.90168138 48.30834961 57.17700195 C48.83944336 57.55469727 49.37053711 57.93239258 49.91772461 58.3215332 C50.62413086 58.87196289 51.33053711 59.42239258 52.05834961 59.98950195 C52.75444336 60.51157227 53.45053711 61.03364258 54.16772461 61.5715332 C60.19609435 68.90898324 61.93106135 80.28239513 64.55834961 89.23950195 C64.92186523 90.46088867 65.28538086 91.68227539 65.65991211 92.94067383 C68.30834961 101.91648739 68.30834961 101.91648739 68.30834961 104.17700195 C61.37834961 104.17700195 54.44834961 104.17700195 47.30834961 104.17700195 C46.40084961 101.00075195 45.49334961 97.82450195 44.55834961 94.55200195 C44.25904541 93.51422607 43.95974121 92.4764502 43.65136719 91.40722656 C42.44434031 87.21922667 41.25292588 83.03434154 40.19506836 78.8059082 C39.88182617 77.58774414 39.56858398 76.36958008 39.24584961 75.11450195 C38.98674805 74.05102539 38.72764648 72.98754883 38.46069336 71.8918457 C37.00683564 68.46665549 35.44107966 67.14575683 32.30834961 65.17700195 C24.76219533 63.6677711 16.99209869 63.6038769 9.30834961 63.17700195 C9.30834961 76.70700195 9.30834961 90.23700195 9.30834961 104.17700195 C3.03834961 104.17700195 -3.23165039 104.17700195 -9.69165039 104.17700195 C-9.69165039 70.18700195 -9.69165039 36.19700195 -9.69165039 1.17700195 C-6.16790383 0.47225264 -3.48921747 0.04360881 0 0 Z M9.30834961 15.17700195 C9.30834961 26.06700195 9.30834961 36.95700195 9.30834961 48.17700195 C26.18630463 49.4177603 26.18630463 49.4177603 41.37084961 43.73950195 C45.51822926 38.2542579 44.75433517 31.76947937 44.30834961 25.17700195 C43.08399504 21.43949854 42.1320371 19.87955893 39.18334961 17.36450195 C30.22196731 13.66306144 18.77750226 15.10686008 9.30834961 15.17700195 Z " fill="#EAEAEA" transform="translate(1042.691650390625,45.822998046875)"/>
<path d="M0 0 C1.87365234 -0.0299707 1.87365234 -0.0299707 3.78515625 -0.06054688 C4.98011719 -0.05990234 6.17507812 -0.05925781 7.40625 -0.05859375 C8.50259766 -0.06044678 9.59894531 -0.0622998 10.72851562 -0.06420898 C13.5 0.4375 13.5 0.4375 15.02018738 2.02328491 C16.87945891 5.05656177 17.91362731 8.18938744 18.94848633 11.56665039 C19.28581535 12.63365425 19.28581535 12.63365425 19.62995911 13.72221375 C20.37149552 16.07424092 21.10176399 18.42960824 21.83203125 20.78515625 C22.35076097 22.43807931 22.87019746 24.09078071 23.39030457 25.74327087 C24.76110733 30.10514594 26.12242812 34.46992394 27.48175049 38.83538818 C28.84492751 43.20775018 30.21668124 47.57741739 31.58789062 51.94726562 C33.14053307 56.89738563 34.69229982 61.84776859 36.23799133 66.80006409 C36.59321129 67.9378438 36.59321129 67.9378438 36.95560741 69.09860897 C37.42331084 70.59797614 37.89032436 72.0975587 38.3566103 73.59736729 C39.61187267 77.62753513 40.88865133 81.64962585 42.19125366 85.6647644 C42.46960147 86.52848632 42.74794928 87.39220823 43.03473186 88.28210354 C43.57110057 89.94421284 44.11206316 91.6048489 44.65829945 93.26374149 C44.89941802 94.01338389 45.14053659 94.76302629 45.38896179 95.53538513 C45.71130311 96.5228657 45.71130311 96.5228657 46.04015636 97.53029537 C46.5 99.4375 46.5 99.4375 46.5 103.4375 C39.9 103.4375 33.3 103.4375 26.5 103.4375 C25.35815148 99.62963909 24.21796377 95.82134278 23.08203125 92.01171875 C22.69499198 90.71552682 22.30697591 89.41962614 21.91796875 88.12402344 C21.35941775 86.26313669 20.8046538 84.40111456 20.25 82.5390625 C19.74726563 80.85804443 19.74726563 80.85804443 19.234375 79.14306641 C18.5 76.4375 18.5 76.4375 18.5 74.4375 C6.29 74.7675 -5.92 75.0975 -18.5 75.4375 C-21.14 84.6775 -23.78 93.9175 -26.5 103.4375 C-33.43 103.4375 -40.36 103.4375 -47.5 103.4375 C-41.28122493 82.8283868 -35.02410196 62.23164623 -28.62099648 41.67894363 C-27.45822075 37.94649088 -26.29947637 34.21287908 -25.14916992 30.4765625 C-24.00472533 26.75955881 -22.85122381 23.04548389 -21.69106865 19.33335495 C-21.25767695 17.94129962 -20.82747684 16.54824618 -20.40065193 15.15416336 C-19.81240427 13.234996 -19.21131802 11.31977788 -18.60961914 9.40478516 C-18.27338028 8.32073395 -17.93714142 7.23668274 -17.5907135 6.11978149 C-14.34958897 -1.85078854 -7.51878112 -0.04267626 0 0 Z M-1.5 15.4375 C-4.07910585 22.94111217 -6.35219974 30.52547384 -8.5715332 38.14135742 C-9.19170182 40.26438413 -9.81945671 42.3850813 -10.44726562 44.50585938 C-10.8442182 45.86444662 -11.240719 47.22316597 -11.63671875 48.58203125 C-11.99467529 49.80253174 -12.35263184 51.02303223 -12.72143555 52.28051758 C-13.65962847 55.54284551 -13.65962847 55.54284551 -13.5 59.4375 C-4.59 59.4375 4.32 59.4375 13.5 59.4375 C12.28203012 53.34765061 11.06751478 47.47019072 9.37109375 41.53125 C9.17653091 40.83986938 8.98196808 40.14848877 8.7815094 39.43615723 C8.3757517 37.99729407 7.96818825 36.55893893 7.55883789 35.12109375 C6.93118737 32.91531525 6.30991236 30.70781094 5.68945312 28.5 C3.99602998 21.817957 3.99602998 21.817957 1.5 15.4375 C0.51 15.4375 -0.48 15.4375 -1.5 15.4375 Z " fill="#EAEAEA" transform="translate(102.5,46.5625)"/>
<path d="M0 0 C1.07869606 -0.0049926 1.07869606 -0.0049926 2.17918396 -0.01008606 C3.69960902 -0.0151345 5.22004509 -0.01749503 6.74047852 -0.01733398 C9.02705037 -0.01950135 11.31312395 -0.03762568 13.59960938 -0.05664062 C33.89176447 -0.13419589 33.89176447 -0.13419589 40.49609375 3.16796875 C40.52333525 4.58452668 40.54259842 6.0012392 40.55859375 7.41796875 C40.57019531 8.206875 40.58179688 8.99578125 40.59375 9.80859375 C40.49965424 12.08194734 40.07961309 13.97926643 39.49609375 16.16796875 C38.6146167 16.1930249 37.73313965 16.21808105 36.82495117 16.24389648 C33.50178171 16.33998971 30.17873146 16.43915276 26.85571289 16.5402832 C25.42736293 16.58314815 23.99897746 16.62484841 22.57055664 16.6652832 C15.78885901 16.85795858 9.00452909 17.06638311 2.234375 17.515625 C0.99167847 17.59502319 0.99167847 17.59502319 -0.27612305 17.67602539 C-3.03368707 18.28495597 -4.47482379 19.21381839 -6.50390625 21.16796875 C-7.78038491 26.63859159 -8.00074363 30.974547 -5.50390625 36.16796875 C2.01616133 40.65503161 10.37231795 42.62004242 18.765625 44.90429688 C26.99856972 47.29156264 35.32554964 50.360425 40.23193359 57.80004883 C45.5107376 67.71942088 46.02311344 79.41139357 43.1875 90.23828125 C41.32134631 95.44664238 38.16105366 99.28958923 33.49609375 102.16796875 C25.12065298 105.44764373 16.70630353 105.60423676 7.85400391 105.50415039 C5.63146403 105.48057873 3.41013341 105.48360917 1.1875 105.49023438 C-19.94448759 105.44767808 -19.94448759 105.44767808 -26.50390625 102.16796875 C-26.17390625 97.54796875 -25.84390625 92.92796875 -25.50390625 88.16796875 C-23.18875 88.11898437 -20.87359375 88.07 -18.48828125 88.01953125 C-16.20437062 87.96526381 -13.92055072 87.90805861 -11.63671875 87.85058594 C-10.06973245 87.81269569 -8.50267091 87.77777949 -6.93554688 87.74609375 C7.05704794 87.97788615 7.05704794 87.97788615 20.49609375 85.16796875 C22.88434408 81.92786257 23.89954331 79.62823777 23.80859375 75.60546875 C23.80279297 74.48978516 23.80279297 74.48978516 23.796875 73.3515625 C23.4512747 70.84259409 22.82397946 69.32512173 21.49609375 67.16796875 C14.7004193 62.74423609 5.83986954 61.09839329 -1.88867188 58.98828125 C-9.72189669 56.72779152 -17.33650394 53.86784597 -22.7578125 47.53515625 C-23.18964844 46.71273437 -23.62148437 45.8903125 -24.06640625 45.04296875 C-24.52144531 44.21539062 -24.97648437 43.3878125 -25.4453125 42.53515625 C-27.75436975 37.37172933 -27.71956865 32.48924356 -27.75390625 26.91796875 C-27.77453125 26.09683594 -27.79515625 25.27570313 -27.81640625 24.4296875 C-27.86049598 17.47453241 -26.71205013 11.9281486 -22.25390625 6.35546875 C-15.48692072 0.97263935 -8.36641827 0.01368651 0 0 Z " fill="#EAEAEA" transform="translate(1355.50390625,45.83203125)"/>
<path d="M0 0 C1.07869606 -0.0049926 1.07869606 -0.0049926 2.17918396 -0.01008606 C3.69960902 -0.0151345 5.22004509 -0.01749503 6.74047852 -0.01733398 C9.02705037 -0.01950135 11.31312395 -0.03762568 13.59960938 -0.05664062 C33.89176447 -0.13419589 33.89176447 -0.13419589 40.49609375 3.16796875 C40.52333525 4.58452668 40.54259842 6.0012392 40.55859375 7.41796875 C40.57019531 8.206875 40.58179688 8.99578125 40.59375 9.80859375 C40.49965424 12.08194734 40.07961309 13.97926643 39.49609375 16.16796875 C38.6146167 16.1930249 37.73313965 16.21808105 36.82495117 16.24389648 C33.50178171 16.33998971 30.17873146 16.43915276 26.85571289 16.5402832 C25.42736293 16.58314815 23.99897746 16.62484841 22.57055664 16.6652832 C15.78885901 16.85795858 9.00452909 17.06638311 2.234375 17.515625 C0.99167847 17.59502319 0.99167847 17.59502319 -0.27612305 17.67602539 C-3.03368707 18.28495597 -4.47482379 19.21381839 -6.50390625 21.16796875 C-7.78038491 26.63859159 -8.00074363 30.974547 -5.50390625 36.16796875 C2.01616133 40.65503161 10.37231795 42.62004242 18.765625 44.90429688 C26.99856972 47.29156264 35.32554964 50.360425 40.23193359 57.80004883 C45.5107376 67.71942088 46.02311344 79.41139357 43.1875 90.23828125 C41.32134631 95.44664238 38.16105366 99.28958923 33.49609375 102.16796875 C25.12065298 105.44764373 16.70630353 105.60423676 7.85400391 105.50415039 C5.63146403 105.48057873 3.41013341 105.48360917 1.1875 105.49023438 C-19.94448759 105.44767808 -19.94448759 105.44767808 -26.50390625 102.16796875 C-26.17390625 97.54796875 -25.84390625 92.92796875 -25.50390625 88.16796875 C-23.18875 88.11898437 -20.87359375 88.07 -18.48828125 88.01953125 C-16.20437062 87.96526381 -13.92055072 87.90805861 -11.63671875 87.85058594 C-10.06973245 87.81269569 -8.50267091 87.77777949 -6.93554688 87.74609375 C7.05704794 87.97788615 7.05704794 87.97788615 20.49609375 85.16796875 C22.88434408 81.92786257 23.89954331 79.62823777 23.80859375 75.60546875 C23.80279297 74.48978516 23.80279297 74.48978516 23.796875 73.3515625 C23.4512747 70.84259409 22.82397946 69.32512173 21.49609375 67.16796875 C14.7004193 62.74423609 5.83986954 61.09839329 -1.88867188 58.98828125 C-9.72189669 56.72779152 -17.33650394 53.86784597 -22.7578125 47.53515625 C-23.18964844 46.71273437 -23.62148438 45.8903125 -24.06640625 45.04296875 C-24.52144531 44.21539062 -24.97648438 43.3878125 -25.4453125 42.53515625 C-27.75436975 37.37172933 -27.71956865 32.48924356 -27.75390625 26.91796875 C-27.77453125 26.09683594 -27.79515625 25.27570313 -27.81640625 24.4296875 C-27.86049598 17.47453241 -26.71205013 11.9281486 -22.25390625 6.35546875 C-15.48692072 0.97263935 -8.36641827 0.01368651 0 0 Z " fill="#EAEAEA" transform="translate(834.50390625,45.83203125)"/>
<path d="M0 0 C1.1409613 0.00187317 2.28192261 0.00374634 3.4574585 0.00567627 C5.86131731 0.0123828 8.26516546 0.02626933 10.66894531 0.046875 C14.36012848 0.07813138 18.05088488 0.08785806 21.7421875 0.09375 C24.07813024 0.10291621 26.41406862 0.11329076 28.75 0.125 C29.85829163 0.12924988 30.96658325 0.13349976 32.10845947 0.13787842 C33.13002136 0.14748596 34.15158325 0.15709351 35.20410156 0.16699219 C36.55595551 0.17723419 36.55595551 0.17723419 37.93511963 0.18768311 C40.109375 0.328125 40.109375 0.328125 42.109375 1.328125 C42.109375 5.948125 42.109375 10.568125 42.109375 15.328125 C40.89878418 15.35318115 39.68819336 15.3782373 38.44091797 15.40405273 C33.93446913 15.49847384 29.428162 15.59860888 24.921875 15.70043945 C22.97431766 15.74365736 21.02672563 15.78534131 19.07910156 15.82543945 C16.27398238 15.88346158 13.46903567 15.94706284 10.6640625 16.01171875 C9.79820526 16.02843124 8.93234802 16.04514374 8.04025269 16.06236267 C7.21985504 16.08230789 6.3994574 16.10225311 5.55419922 16.12280273 C4.83916229 16.13834702 4.12412537 16.1538913 3.38742065 16.16990662 C0.6078903 16.3629549 -2.14230837 16.87007223 -4.890625 17.328125 C-5.220625 25.248125 -5.550625 33.168125 -5.890625 41.328125 C7.969375 41.328125 21.829375 41.328125 36.109375 41.328125 C36.109375 46.278125 36.109375 51.228125 36.109375 56.328125 C22.249375 56.328125 8.389375 56.328125 -5.890625 56.328125 C-5.560625 66.228125 -5.230625 76.128125 -4.890625 86.328125 C-1.17689415 86.94708014 1.89603127 87.45392188 5.55419922 87.53344727 C6.37459686 87.55339249 7.19499451 87.57333771 8.04025269 87.59388733 C8.90610992 87.61059982 9.77196716 87.62731232 10.6640625 87.64453125 C11.56561066 87.66531235 12.46715881 87.68609344 13.39602661 87.70750427 C16.2587364 87.7725708 19.12153319 87.83168414 21.984375 87.890625 C23.93230044 87.93385107 25.88021729 87.97746664 27.828125 88.02148438 C32.58845389 88.12820789 37.34886976 88.22959464 42.109375 88.328125 C42.109375 92.948125 42.109375 97.568125 42.109375 102.328125 C39.64726474 103.55918013 37.98958667 103.47484506 35.23583984 103.50512695 C33.71318008 103.52437981 33.71318008 103.52437981 32.15975952 103.54402161 C31.057742 103.55140854 29.95572449 103.55879547 28.8203125 103.56640625 C27.68792145 103.574478 26.5555304 103.58254974 25.38882446 103.59086609 C22.98628271 103.60471821 20.58372119 103.61543529 18.18115234 103.62329102 C14.520123 103.64045738 10.8600074 103.68432944 7.19921875 103.72851562 C4.86458997 103.73864649 2.52995351 103.74716136 0.1953125 103.75390625 C-1.4394957 103.78016838 -1.4394957 103.78016838 -3.10733032 103.80696106 C-10.46829773 103.78613456 -16.21796894 102.88381749 -21.73046875 97.546875 C-22.27380859 96.69609375 -22.27380859 96.69609375 -22.828125 95.828125 C-23.39853516 94.97734375 -23.39853516 94.97734375 -23.98046875 94.109375 C-26.10709034 89.94740314 -26.02686451 85.90254358 -26.05175781 81.28393555 C-26.05672272 80.58258484 -26.06168762 79.88123413 -26.06680298 79.15863037 C-26.08137824 76.84402475 -26.088219 74.52948768 -26.09375 72.21484375 C-26.09950548 70.60065205 -26.10526316 68.98646036 -26.11102295 67.37226868 C-26.12151989 63.98881717 -26.12737103 60.60538932 -26.13085938 57.22192383 C-26.13633994 52.89776119 -26.16036396 48.57391407 -26.18883133 44.24985027 C-26.20750456 40.91515708 -26.21266581 37.58053916 -26.21419525 34.24579811 C-26.21721198 32.65227344 -26.22520727 31.05874979 -26.23838043 29.46527672 C-26.25553887 27.23011001 -26.25353726 24.99570487 -26.24707031 22.76049805 C-26.25071594 21.49126999 -26.25436157 20.22204193 -26.25811768 18.91435242 C-25.57920454 12.28908595 -23.05601993 7.65264168 -17.890625 3.328125 C-12.17658457 -0.48967326 -6.62134321 -0.07430722 0 0 Z " fill="#EAEAEA" transform="translate(1245.890625,46.671875)"/>
<path d="M0 0 C1.1409613 0.00187317 2.28192261 0.00374634 3.4574585 0.00567627 C5.86131731 0.0123828 8.26516546 0.02626933 10.66894531 0.046875 C14.36012848 0.07813138 18.05088488 0.08785806 21.7421875 0.09375 C24.07813024 0.10291621 26.41406862 0.11329076 28.75 0.125 C29.85829163 0.12924988 30.96658325 0.13349976 32.10845947 0.13787842 C33.13002136 0.14748596 34.15158325 0.15709351 35.20410156 0.16699219 C36.55595551 0.17723419 36.55595551 0.17723419 37.93511963 0.18768311 C40.109375 0.328125 40.109375 0.328125 42.109375 1.328125 C42.109375 5.948125 42.109375 10.568125 42.109375 15.328125 C40.89878418 15.35318115 39.68819336 15.3782373 38.44091797 15.40405273 C33.93446913 15.49847384 29.428162 15.59860888 24.921875 15.70043945 C22.97431766 15.74365736 21.02672563 15.78534131 19.07910156 15.82543945 C16.27398238 15.88346158 13.46903567 15.94706284 10.6640625 16.01171875 C9.79820526 16.02843124 8.93234802 16.04514374 8.04025269 16.06236267 C7.21985504 16.08230789 6.3994574 16.10225311 5.55419922 16.12280273 C4.83916229 16.13834702 4.12412537 16.1538913 3.38742065 16.16990662 C0.6078903 16.3629549 -2.14230837 16.87007223 -4.890625 17.328125 C-5.220625 25.248125 -5.550625 33.168125 -5.890625 41.328125 C7.969375 41.328125 21.829375 41.328125 36.109375 41.328125 C36.109375 46.278125 36.109375 51.228125 36.109375 56.328125 C22.249375 56.328125 8.389375 56.328125 -5.890625 56.328125 C-5.560625 66.228125 -5.230625 76.128125 -4.890625 86.328125 C-1.17689415 86.94708014 1.89603127 87.45392188 5.55419922 87.53344727 C6.37459686 87.55339249 7.19499451 87.57333771 8.04025269 87.59388733 C8.90610992 87.61059982 9.77196716 87.62731232 10.6640625 87.64453125 C11.56561066 87.66531235 12.46715881 87.68609344 13.39602661 87.70750427 C16.2587364 87.7725708 19.12153319 87.83168414 21.984375 87.890625 C23.93230044 87.93385107 25.88021729 87.97746664 27.828125 88.02148438 C32.58845389 88.12820789 37.34886976 88.22959464 42.109375 88.328125 C42.109375 92.948125 42.109375 97.568125 42.109375 102.328125 C39.64726474 103.55918013 37.98958667 103.47484506 35.23583984 103.50512695 C33.71318008 103.52437981 33.71318008 103.52437981 32.15975952 103.54402161 C31.057742 103.55140854 29.95572449 103.55879547 28.8203125 103.56640625 C27.68792145 103.574478 26.5555304 103.58254974 25.38882446 103.59086609 C22.98628271 103.60471821 20.58372119 103.61543529 18.18115234 103.62329102 C14.520123 103.64045738 10.8600074 103.68432944 7.19921875 103.72851562 C4.86458997 103.73864649 2.52995351 103.74716136 0.1953125 103.75390625 C-1.4394957 103.78016838 -1.4394957 103.78016838 -3.10733032 103.80696106 C-10.46829773 103.78613456 -16.21796894 102.88381749 -21.73046875 97.546875 C-22.27380859 96.69609375 -22.27380859 96.69609375 -22.828125 95.828125 C-23.39853516 94.97734375 -23.39853516 94.97734375 -23.98046875 94.109375 C-26.10709034 89.94740314 -26.02686451 85.90254358 -26.05175781 81.28393555 C-26.05672272 80.58258484 -26.06168762 79.88123413 -26.06680298 79.15863037 C-26.08137824 76.84402475 -26.088219 74.52948768 -26.09375 72.21484375 C-26.09950548 70.60065205 -26.10526316 68.98646036 -26.11102295 67.37226868 C-26.12151989 63.98881717 -26.12737103 60.60538932 -26.13085938 57.22192383 C-26.13633994 52.89776119 -26.16036396 48.57391407 -26.18883133 44.24985027 C-26.20750456 40.91515708 -26.21266581 37.58053916 -26.21419525 34.24579811 C-26.21721198 32.65227344 -26.22520727 31.05874979 -26.23838043 29.46527672 C-26.25553887 27.23011001 -26.25353726 24.99570487 -26.24707031 22.76049805 C-26.25071594 21.49126999 -26.25436157 20.22204193 -26.25811768 18.91435242 C-25.57920454 12.28908595 -23.05601993 7.65264168 -17.890625 3.328125 C-12.17658457 -0.48967326 -6.62134321 -0.07430722 0 0 Z " fill="#EAEAEA" transform="translate(946.890625,46.671875)"/>
<path d="M0 0 C1.45181923 -0.00956978 1.45181923 -0.00956978 2.93296814 -0.01933289 C4.49864281 -0.02100212 4.49864281 -0.02100212 6.09594727 -0.02270508 C7.16982193 -0.02603348 8.24369659 -0.02936188 9.35011292 -0.03279114 C11.62223889 -0.03785587 13.8943723 -0.0401996 16.16650391 -0.04003906 C19.64506257 -0.04222546 23.12330411 -0.06038593 26.60180664 -0.0793457 C28.80818576 -0.0822797 31.01456639 -0.08426446 33.22094727 -0.08520508 C34.78358559 -0.09598335 34.78358559 -0.09598335 36.37779236 -0.10697937 C37.83433983 -0.10236443 37.83433983 -0.10236443 39.3203125 -0.09765625 C40.17286118 -0.09908127 41.02540985 -0.10050629 41.90379333 -0.10197449 C44.22485352 0.14526367 44.22485352 0.14526367 48.22485352 2.14526367 C47.89485352 6.43526367 47.56485352 10.72526367 47.22485352 15.14526367 C46.11037842 15.17031982 44.99590332 15.19537598 43.84765625 15.22119141 C39.68967344 15.31578062 35.53183777 15.41587293 31.37402344 15.51757812 C29.5788112 15.56073304 27.78356304 15.60242072 25.98828125 15.64257812 C23.39906008 15.7007548 20.81001651 15.76430938 18.22094727 15.82885742 C17.42587265 15.84556992 16.63079803 15.86228241 15.81163025 15.87950134 C11.20304351 16.00040643 6.77566926 16.40135487 2.22485352 17.14526367 C1.10229905 22.74860276 0.89789343 28.32768224 0.66235352 34.02026367 C0.51797852 37.36151367 0.37360352 40.70276367 0.22485352 44.14526367 C13.75485352 44.14526367 27.28485352 44.14526367 41.22485352 44.14526367 C41.22485352 49.09526367 41.22485352 54.04526367 41.22485352 59.14526367 C27.69485352 59.14526367 14.16485352 59.14526367 0.22485352 59.14526367 C0.22485352 73.66526367 0.22485352 88.18526367 0.22485352 103.14526367 C-6.04514648 103.14526367 -12.31514648 103.14526367 -18.77514648 103.14526367 C-18.88825621 91.54890634 -18.97992561 79.95291738 -19.03420734 68.35613251 C-19.06026422 62.97085521 -19.09559122 57.58597597 -19.15234375 52.20092773 C-19.2068024 47.00079962 -19.23659642 41.80105358 -19.2495327 36.60066223 C-19.25874769 34.61995939 -19.27674263 32.63927669 -19.30379677 30.65873718 C-19.34027135 27.87709916 -19.34508417 25.0970255 -19.34277344 22.31518555 C-19.36074982 21.50238129 -19.3787262 20.68957703 -19.39724731 19.85214233 C-19.34364986 13.86124301 -17.60242597 9.7682318 -13.77514648 5.14526367 C-9.22056607 1.59269095 -5.73619326 0.02567083 0 0 Z " fill="#EAEAEA" transform="translate(332.775146484375,46.854736328125)"/>
<path d="M0 0 C6.27 0 12.54 0 19 0 C19.01981934 2.4327832 19.03963867 4.86556641 19.06005859 7.37207031 C19.12694259 15.4068127 19.20458246 23.44142515 19.28752708 31.476017 C19.33748919 36.34775185 19.3838193 41.21946503 19.421875 46.09130859 C19.4587288 50.79223401 19.50508912 55.49297805 19.55806351 60.19374847 C19.57660693 61.98786998 19.59171509 63.78203037 19.60334396 65.57621002 C19.62020728 68.08777978 19.64924239 70.5989342 19.68115234 73.11035156 C19.68331253 73.85338028 19.68547272 74.596409 19.68769836 75.36195374 C19.76834527 80.50176292 19.76834527 80.50176292 22 85 C26.69275145 86.31991909 31.6087066 86.20920978 36.4609375 86.31640625 C37.6467894 86.3475779 37.6467894 86.3475779 38.8565979 86.37937927 C41.36265017 86.44435582 43.86880024 86.50351643 46.375 86.5625 C48.08204105 86.60573468 49.78907249 86.64935049 51.49609375 86.69335938 C55.66396426 86.7999834 59.83193239 86.90139441 64 87 C64.495 94.425 64.495 94.425 65 102 C61.48551408 102.70289718 58.81555519 103.13320533 55.33666992 103.17700195 C53.99453682 103.19625481 53.99453682 103.19625481 52.62528992 103.21589661 C51.66999893 103.22328354 50.71470795 103.23067047 49.73046875 103.23828125 C48.73549881 103.246353 47.74052887 103.25442474 46.71540833 103.26274109 C44.61326828 103.27654624 42.51110615 103.28728428 40.40893555 103.29516602 C38.2666158 103.30669347 36.12432494 103.32715722 33.98217773 103.35668945 C30.87724402 103.39947162 27.77316103 103.41554892 24.66796875 103.42578125 C23.71875046 103.44328934 22.76953217 103.46079742 21.79154968 103.47883606 C15.68583333 103.45908108 11.09417769 102.48111091 6 99 C0.47025497 93.32473537 -0.29501003 87.95797937 -0.22705078 80.26245117 C-0.22734283 79.39365326 -0.22763489 78.52485535 -0.22793579 77.62973022 C-0.22654608 74.76737366 -0.2110017 71.90527966 -0.1953125 69.04296875 C-0.1915811 67.05471438 -0.18873473 65.06645816 -0.18673706 63.07820129 C-0.17911063 57.85196838 -0.15947059 52.6258471 -0.1373291 47.3996582 C-0.11684938 42.0639802 -0.10773079 36.72828412 -0.09765625 31.39257812 C-0.0762238 20.92832855 -0.04104966 10.46419103 0 0 Z " fill="#EAEAEA" transform="translate(489,47)"/>
<path d="M0 0 C6.6 0 13.2 0 20 0 C20 33.99 20 67.98 20 103 C13.4 103 6.8 103 0 103 C0 69.01 0 35.02 0 0 Z " fill="#EAEAEA" transform="translate(1153,47)"/>
<path d="M0 0 C6.6 0 13.2 0 20 0 C20 33.99 20 67.98 20 103 C13.4 103 6.8 103 0 103 C0 69.01 0 35.02 0 0 Z " fill="#EAEAEA" transform="translate(421,47)"/>
<path d="M0 0 C6.6 0 13.2 0 20 0 C20 33.99 20 67.98 20 103 C13.4 103 6.8 103 0 103 C0 69.01 0 35.02 0 0 Z " fill="#EAEAEA" transform="translate(187,47)"/>
</svg>
