<?xml version="1.0" encoding="UTF-8"?>
<svg version="1.1" xmlns="http://www.w3.org/2000/svg" width="1704" height="296">
<path d="M0 0 C14.85 0 29.7 0 45 0 C45 22.11 45 44.22 45 67 C52.26 67 59.52 67 67 67 C67.66 65.35 68.32 63.7 69 62 C69.87027846 60.32749163 70.77091521 58.67055965 71.6953125 57.02734375 C72.23873291 56.05861328 72.78215332 55.08988281 73.34204102 54.09179688 C73.93041748 53.05087891 74.51879395 52.00996094 75.125 50.9375 C76.04140259 49.30844727 76.04140259 49.30844727 76.97631836 47.64648438 C82.46861346 37.90027809 88.01495407 28.18472276 93.58056641 18.48022461 C94.21526855 17.37300049 94.8499707 16.26577637 95.50390625 15.125 C96.05892822 14.15820312 96.6139502 13.19140625 97.18579102 12.1953125 C99.48496286 8.14584929 101.73853323 4.07064018 104 0 C119.84 0 135.68 0 152 0 C150.5698626 4.2904122 149.49964515 7.16412963 147.26953125 10.88671875 C146.72167969 11.81097656 146.17382812 12.73523438 145.609375 13.6875 C145.01640625 14.6775 144.4234375 15.6675 143.8125 16.6875 C137.91240387 26.66001175 132.22400671 36.7302337 126.6394043 46.88232422 C123.49372217 52.57937145 120.29664302 58.23452019 116.9765625 63.83203125 C116.33009766 64.92257813 115.68363281 66.013125 115.01757812 67.13671875 C113.7877586 69.20037876 112.54990527 71.25927974 111.30273438 73.3125 C110.47612305 74.69888672 110.47612305 74.69888672 109.6328125 76.11328125 C109.14699707 76.91548096 108.66118164 77.71768066 108.16064453 78.54418945 C106.76920797 81.48833341 106.16808258 83.73857647 106 87 C107.05584758 90.06054109 107.05584758 90.06054109 108.83203125 93.078125 C109.46036865 94.22917725 110.08870605 95.38022949 110.73608398 96.56616211 C111.42787291 97.79430514 112.12001969 99.02224667 112.8125 100.25 C113.51585119 101.5246747 114.21774553 102.80015431 114.91821289 104.07641602 C116.30555427 106.59746893 117.70192227 109.11310709 119.10839844 111.62353516 C120.63688211 114.35184299 122.15529383 117.08499212 123.6640625 119.82421875 C125.1858169 122.58223822 126.71791184 125.33410507 128.2578125 128.08203125 C130.52278992 132.13087484 132.75959197 136.1949618 134.9921875 140.26171875 C135.71099318 141.56975696 136.42982476 142.87778094 137.14868164 144.18579102 C138.21966361 146.13464577 139.28997184 148.08385215 140.35787964 150.03439331 C144.06557478 156.80533742 147.81554287 163.50883053 152 170 C159.38285091 150.75931082 166.71254858 131.4991431 173.98736572 112.21734619 C178.49912249 100.25932106 183.0192835 88.30454778 187.5546875 76.35546875 C187.90970778 75.42007106 187.90970778 75.42007106 188.27190018 74.46577644 C190.42730299 68.78690623 192.58305427 63.10816837 194.73956299 57.42971802 C201.41818346 39.84440581 201.41818346 39.84440581 208.03125 22.234375 C208.32235153 21.45504105 208.61345306 20.67570709 208.91337585 19.87275696 C210.20161817 16.42158847 211.48626541 12.96914651 212.76489258 9.5144043 C213.18923584 8.37398682 213.6135791 7.23356934 214.05078125 6.05859375 C214.40825439 5.09236084 214.76572754 4.12612793 215.1340332 3.13061523 C216 1 216 1 217 0 C218.56547048 -0.09326716 220.13512772 -0.11745582 221.70336914 -0.11352539 C222.70433121 -0.11344986 223.70529327 -0.11337433 224.73658752 -0.11329651 C225.8251152 -0.10813522 226.91364288 -0.10297394 228.03515625 -0.09765625 C229.6977372 -0.09553383 229.6977372 -0.09553383 231.39390564 -0.09336853 C234.95013069 -0.08775033 238.50629383 -0.07519475 242.0625 -0.0625 C244.46679597 -0.05748734 246.87109292 -0.05292403 249.27539062 -0.04882812 C255.18361504 -0.03777499 261.0918031 -0.02101917 267 0 C272.48870632 13.54455953 277.75721473 27.16088378 282.89297485 40.84292603 C285.0662929 46.63257296 287.24650688 52.4196243 289.42578125 58.20703125 C290.10657997 60.0157798 290.10657997 60.0157798 290.8011322 61.86106873 C295.48109375 74.28959906 300.19475167 86.70526202 304.91027832 99.12033081 C311.59231858 116.7147123 318.26802999 134.31145186 324.88607788 151.93002319 C325.54002358 153.67080424 326.19449483 155.41138795 326.84951782 157.15176392 C327.73213229 159.49766858 328.61256407 161.84437872 329.4921875 164.19140625 C329.87945763 165.21956451 329.87945763 165.21956451 330.27455139 166.26849365 C332 170.88503766 332 170.88503766 332 172 C315.83 172 299.66 172 283 172 C279.02357374 162.45657697 275.44093011 152.74930197 272 143 C252.2 143 232.4 143 212 143 C208.7 151.91 205.4 160.82 202 170 C201.67 170.66 201.34 171.32 201 172 C168.99 172 136.98 172 104 172 C98.66273643 162.51153143 93.36667847 153.03993963 88.25 143.4375 C82.9912245 133.60168242 77.58768239 123.86121727 71.99902344 114.20874023 C71.48758789 113.31743408 70.97615234 112.42612793 70.44921875 111.5078125 C69.77379028 110.34209717 69.77379028 110.34209717 69.0847168 109.15283203 C68 107 68 107 67 103 C59.74 103 52.48 103 45 103 C45 125.77 45 148.54 45 172 C30.15 172 15.3 172 0 172 C0 115.24 0 58.48 0 0 Z M241 55 C238.65130806 61.89246473 236.30424207 68.7854808 233.95927429 75.67921352 C232.8704653 78.87992334 231.78108834 82.08043752 230.69042969 85.28051758 C229.43777949 88.95597424 228.18757017 92.63225875 226.9375 96.30859375 C226.54377197 97.46274277 226.15004395 98.61689178 225.74438477 99.80601501 C225.38401123 100.86703934 225.0236377 101.92806366 224.65234375 103.02124023 C224.17269165 104.43021828 224.17269165 104.43021828 223.68334961 105.86766052 C222.94913647 107.78552235 222.94913647 107.78552235 223 109 C235.54 109 248.08 109 261 109 C259.14375 103.43125 257.2875 97.8625 255.375 92.125 C251.25 79.75 247.125 67.375 243 55 C242.34 55 241.68 55 241 55 Z " fill="#EAEAEA" transform="translate(1372,55)"/>
<path d="M0 0 C15.84 0 31.68 0 48 0 C54.70445383 12.36599263 61.40038141 24.73615589 68.0625 37.125 C77.23101147 54.16438844 86.45168325 71.16988614 96 88 C98.65907269 84.69308051 100.63337401 81.12933876 102.58984375 77.3828125 C102.93025696 76.73807983 103.27067017 76.09334717 103.62139893 75.42907715 C104.35063746 74.04733157 105.0783867 72.66479913 105.80477905 71.28155518 C107.72183996 67.63171747 109.65042926 63.98797876 111.578125 60.34375 C111.96087082 59.61958893 112.34361664 58.89542786 112.73796082 58.14932251 C116.29677818 51.42283285 119.92974272 44.73843743 123.59130859 38.06738281 C126.33500565 33.06422617 129.05207913 28.04779537 131.7421875 23.015625 C132.06038956 22.42119598 132.37859161 21.82676697 132.70643616 21.21432495 C134.26472953 18.30324376 135.81997091 15.39066393 137.36987305 12.47509766 C137.929729 11.4288623 138.48958496 10.38262695 139.06640625 9.3046875 C139.56084229 8.37640137 140.05527832 7.44811523 140.56469727 6.49169922 C142 4 142 4 145 0 C160.51 0 176.02 0 192 0 C192 56.76 192 113.52 192 172 C177.15 172 162.3 172 147 172 C146.67 142.3 146.34 112.6 146 82 C138.29141983 95.63825722 130.59494707 109.27144582 123.04882812 122.99804688 C122.44361328 124.09310547 121.83839844 125.18816406 121.21484375 126.31640625 C120.69011475 127.26974854 120.16538574 128.22309082 119.62475586 129.20532227 C119.08858643 130.12756592 118.55241699 131.04980957 118 132 C117.44417236 133.09513916 116.88834473 134.19027832 116.31567383 135.31860352 C114 138 114 138 110.24121094 138.68115234 C108.73859736 138.68020715 107.23576502 138.64657124 105.734375 138.5859375 C104.94097717 138.57744781 104.14757935 138.56895813 103.33013916 138.56021118 C100.8020302 138.52668692 98.27714037 138.4514198 95.75 138.375 C94.03390032 138.34489867 92.31775051 138.31752314 90.6015625 138.29296875 C86.39980591 138.22690014 82.20044819 138.1233937 78 138 C77.58339111 137.24195068 77.16678223 136.48390137 76.73754883 135.70288086 C69.44311001 122.43726424 62.13906457 109.17821994 54.6875 96 C54.15552002 95.05890381 53.62354004 94.11780762 53.07543945 93.14819336 C50.76194794 89.06713263 48.41425257 85.02375428 46 81 C45.67 111.03 45.34 141.06 45 172 C30.15 172 15.3 172 0 172 C0 115.24 0 58.48 0 0 Z " fill="#EAEAEA" transform="translate(1042,55)"/>
<path d="M0 0 C26.296875 -0.0928125 26.296875 -0.0928125 53.125 -0.1875 C61.39135498 -0.22846802 61.39135498 -0.22846802 69.82470703 -0.27026367 C76.61694336 -0.28381348 76.61694336 -0.28381348 79.80880737 -0.28633118 C82.01154403 -0.29090161 84.21427376 -0.30137643 86.41696167 -0.31672668 C122.24375011 -0.55365659 122.24375011 -0.55365659 134.25 9.97265625 C143.29838713 19.40360387 145.98810419 31.27871077 146.25 44.0625 C145.98549779 56.12068901 142.75026287 66.56092408 134.484375 75.59375 C131.9685457 77.97716724 129.54944319 80 126 80 C126 80.66 126 81.32 126 82 C127.485 82.309375 127.485 82.309375 129 82.625 C137.93179243 85.25411632 143.55895458 92.13236116 148 100 C154.65582661 115.04620196 155.49448506 133.39919301 150 149 C146.03967703 158.44384708 139.91988029 164.43809335 130.8203125 168.95703125 C122.94466651 171.86949313 115.39345827 172.28248913 107.05444336 172.22705078 C105.283491 172.22741239 105.283491 172.22741239 103.47676182 172.2277813 C99.68104396 172.22629669 95.88552616 172.21110293 92.08984375 172.1953125 C89.73604425 172.19236943 87.38224345 172.19033061 85.02844238 172.18920898 C76.33144154 172.17875229 67.63446877 172.15082975 58.9375 172.125 C29.7634375 172.063125 29.7634375 172.063125 0 172 C0 115.24 0 58.48 0 0 Z M45 35 C45 46.22 45 57.44 45 69 C50.99588085 69.04602382 56.99114352 69.08581613 62.98706055 69.10986328 C65.02484215 69.11989285 67.06260946 69.13351978 69.1003418 69.15087891 C72.0369826 69.17526127 74.97343235 69.18651377 77.91015625 69.1953125 C79.26682152 69.21079636 79.26682152 69.21079636 80.65089417 69.22659302 C89.19339918 69.23454312 89.19339918 69.23454312 96.7421875 65.6328125 C101.25486101 59.62628845 101.6237372 54.36009891 101 47 C99.78961802 41.95833018 97.39103559 38.78455916 93 36 C90.11668882 35.08795654 87.52146276 34.87781189 84.50683594 34.88647461 C83.62622498 34.88655014 82.74561401 34.88662567 81.83831787 34.88670349 C80.42561615 34.89444542 80.42561615 34.89444542 78.984375 34.90234375 C78.01340881 34.9037587 77.04244263 34.90517365 76.04205322 34.90663147 C72.94467065 34.91222337 69.84736068 34.92477441 66.75 34.9375 C64.64843854 34.94251605 62.54687596 34.94707877 60.4453125 34.95117188 C55.2968246 34.96133872 50.14849347 34.9809158 45 35 Z M45 104 C45 114.89 45 125.78 45 137 C52.59921691 137.06887508 60.19735049 137.12861017 67.79663086 137.16479492 C70.38162913 137.17987962 72.96660182 137.20035002 75.55151367 137.22631836 C79.2674796 137.26271442 82.98310707 137.27972985 86.69921875 137.29296875 C87.85459641 137.30845261 89.00997406 137.32393646 90.20036316 137.33988953 C91.82147758 137.34022942 91.82147758 137.34022942 93.4753418 137.34057617 C94.89764351 137.35056892 94.89764351 137.35056892 96.34867859 137.36076355 C100.41495889 136.80746748 103.0734653 135.0588968 105.75 132 C109.13070625 126.59087 108.42334349 120.14604038 108 114 C106.51704159 109.69942062 104.91748252 107.32600525 101 105 C97.9714581 103.99048603 95.95994658 103.878955 92.79418945 103.88647461 C91.73331619 103.88655014 90.67244293 103.88662567 89.579422 103.88670349 C87.86368233 103.89444542 87.86368233 103.89444542 86.11328125 103.90234375 C84.35506294 103.90446617 84.35506294 103.90446617 82.56132507 103.90663147 C78.81169093 103.91223612 75.06211615 103.92478944 71.3125 103.9375 C68.77278732 103.9425144 66.2330737 103.94707741 63.69335938 103.95117188 C57.46219822 103.96135684 51.23116569 103.98093149 45 104 Z " fill="#EAEAEA" transform="translate(368,55)"/>
<path d="M0 0 C0.8517128 -0.00511093 1.7034256 -0.01022186 2.58094788 -0.01548767 C5.36865462 -0.02927444 8.15611108 -0.02843515 10.94384766 -0.02612305 C12.9000355 -0.03001601 14.85622251 -0.03435191 16.81240845 -0.03910828 C20.90247341 -0.04654708 24.99245202 -0.04629626 29.08251953 -0.04101562 C34.29958352 -0.03522464 39.51629207 -0.05215456 44.73329735 -0.0753603 C48.77072178 -0.09015887 52.80806182 -0.09096102 56.84550858 -0.08785057 C58.76785613 -0.08836072 60.69020879 -0.09354036 62.61252975 -0.10366249 C76.95309186 -0.16991496 91.89049127 0.20297718 103.24462891 10.2824707 C117.52676033 25.43578574 116.14248438 46.26866244 116.15087891 65.7512207 C116.15410224 67.52940903 116.15746707 69.3075971 116.16096497 71.08578491 C116.16692016 74.79897678 116.16880867 78.5121455 116.16821289 82.2253418 C116.16811161 86.9314979 116.18174468 91.63750198 116.1989851 96.34362221 C116.21022711 100.01415661 116.21212838 103.6846557 116.21160316 107.35520554 C116.21276574 109.08755388 116.21708771 110.81990369 116.22493553 112.55223465 C116.26142021 121.43870912 116.05070503 130.21846738 115.11303711 139.0612793 C115.03807857 139.78955744 114.96312002 140.51783558 114.88589001 141.26818275 C114.10712592 147.84866089 112.10665008 153.46688368 108.98291016 159.2746582 C108.63615234 159.94754883 108.28939453 160.62043945 107.93212891 161.3137207 C103.20738177 169.1138487 94.0702561 173.41336108 85.56494141 175.7668457 C79.36343413 176.98650674 73.26366262 177.42567447 66.953125 177.43579102 C66.19415924 177.44075592 65.43519348 177.44572083 64.65322876 177.45083618 C62.16675881 177.465322 59.6803527 177.47223783 57.19384766 177.4777832 C56.33605335 177.48061058 55.47825905 177.48343796 54.59447098 177.48635101 C50.05256092 177.50129037 45.51068217 177.51055231 40.96875 177.51489258 C36.31582648 177.5203616 31.66319787 177.5443716 27.01036644 177.57286453 C23.39831752 177.59163811 19.78633748 177.59670433 16.17424393 177.59822845 C14.46090716 177.60122371 12.74757068 177.60914407 11.03428268 177.62241364 C-4.85164263 177.7366471 -18.73896182 176.19262899 -32.26708984 167.0871582 C-43.52610258 155.57225881 -45.15682016 140.43141026 -45.17822266 125.06152344 C-45.18318756 124.18858139 -45.18815247 123.31563934 -45.19326782 122.41624451 C-45.2077583 119.55523867 -45.21467037 116.69428832 -45.22021484 113.83325195 C-45.22304222 112.84648027 -45.2258696 111.8597086 -45.22878265 110.84303474 C-45.24372408 105.61801008 -45.25298467 100.39301265 -45.25732422 95.16796875 C-45.26279287 89.8146611 -45.28680165 84.46160982 -45.31529617 79.10838223 C-45.33406857 74.95324513 -45.33913592 70.79816791 -45.3406601 66.64299202 C-45.3436557 64.67173936 -45.3515773 62.70048694 -45.36484528 60.72927666 C-45.58667179 25.23191964 -45.58667179 25.23191964 -33.94287109 11.8996582 C-24.38399554 2.82456519 -12.89362343 -0.04081757 0 0 Z M3.98291016 38.2746582 C-0.19722737 43.75207979 -0.16649507 49.50975381 -0.16235352 56.16674805 C-0.16571213 56.94627335 -0.16907074 57.72579865 -0.17253113 58.52894592 C-0.18200551 61.09784553 -0.18398245 63.66667972 -0.18505859 66.2355957 C-0.18827355 68.0277204 -0.1916378 69.81984484 -0.19514465 71.61196899 C-0.20112708 75.36607471 -0.20298546 79.12015743 -0.20239258 82.87426758 C-0.20229099 87.67475064 -0.21594361 92.47508568 -0.23316479 97.27553368 C-0.24430592 100.97651847 -0.24631114 104.67746771 -0.24578285 108.37846756 C-0.24695976 110.14781835 -0.25136527 111.91717015 -0.25911522 113.68650436 C-0.2689581 116.16570027 -0.26602024 118.64457781 -0.26000977 121.1237793 C-0.26562927 121.84816696 -0.27124878 122.57255463 -0.27703857 123.31889343 C-0.24574639 128.42132299 0.09287062 133.86620782 3.35009766 138.0168457 C7.88251671 141.422031 10.97576523 142.39293667 16.54858398 142.41992188 C17.44664261 142.42630173 18.34470123 142.43268158 19.26997375 142.43925476 C20.23356308 142.44036758 21.1971524 142.44148041 22.18994141 142.44262695 C23.68807625 142.44761955 23.68807625 142.44761955 25.21647644 142.45271301 C27.32880188 142.45777276 29.4411353 142.46012163 31.5534668 142.45996094 C34.7729218 142.46214296 37.99203159 142.48029663 41.21142578 142.49926758 C43.26676316 142.50220264 45.32210215 142.50418668 47.37744141 142.50512695 C48.33495804 142.51231247 49.29247467 142.51949799 50.27900696 142.52690125 C59.74755852 142.52694616 59.74755852 142.52694616 67.64031982 137.74833679 C70.75423829 133.82333665 70.68327675 130.19230099 70.61401367 125.33520508 C70.62116898 124.45639175 70.62832428 123.57757843 70.63569641 122.6721344 C70.65255023 119.77869044 70.6332004 116.88680314 70.61181641 113.9934082 C70.61264541 111.97611361 70.61510598 109.95881908 70.61912537 107.94152832 C70.6219811 103.7182171 70.60730382 99.49543688 70.57983398 95.2722168 C70.54575186 89.86496106 70.5517717 84.45865463 70.57049656 79.05135345 C70.58107671 74.88710654 70.57211944 70.72307962 70.55711174 66.55885315 C70.55193694 64.56540073 70.55240319 62.57192528 70.55865669 60.57847595 C70.56412111 57.78985372 70.54369457 55.00257983 70.51635742 52.21411133 C70.5228833 51.39419205 70.52940918 50.57427277 70.53613281 49.72950745 C70.44913332 44.49724695 69.58731307 41.33313765 65.98291016 37.2746582 C62.58128032 35.37223141 59.68796283 35.02027854 55.82885742 35 C54.82754288 34.99046799 53.82622833 34.98093597 52.79457092 34.97111511 C51.72363693 34.97202652 50.65270294 34.97293793 49.54931641 34.97387695 C47.88327614 34.96744926 47.88327614 34.96744926 46.18357849 34.96089172 C43.83764324 34.95515579 41.4916902 34.95464272 39.14575195 34.95898438 C35.56186509 34.9621437 31.97880436 34.93867718 28.39501953 34.91333008 C26.11311953 34.91105692 23.83121731 34.91035367 21.54931641 34.91137695 C20.48040665 34.90216721 19.41149689 34.89295746 18.31019592 34.88346863 C12.80655205 34.91759723 8.68937944 35.07372071 3.98291016 38.2746582 Z " fill="#EAEAEA" transform="translate(900.01708984375,52.725341796875)"/>
<path d="M0 0 C14.85 0 29.7 0 45 0 C45.01458252 3.84084229 45.02916504 7.68168457 45.04418945 11.63891602 C45.09452137 24.32759305 45.16096413 37.01614277 45.23571491 49.70469761 C45.28064377 57.39792573 45.32006509 65.09110786 45.34643555 72.78442383 C45.36943926 79.49142386 45.40286368 86.198278 45.44870156 92.90516227 C45.47260196 96.45506722 45.4913515 100.00482796 45.49761391 103.55481148 C45.50480749 107.52180919 45.53527026 111.48844613 45.56762695 115.45532227 C45.56619186 116.62704987 45.56475677 117.79877747 45.5632782 119.00601196 C45.63358543 125.09927737 45.98860169 129.64783468 49 135 C52.58105367 138.46553581 56.24924076 139.11875086 61.10668945 139.14526367 C61.90464432 139.15164352 62.70259918 139.15802338 63.5247345 139.16459656 C64.80606514 139.16626579 64.80606514 139.16626579 66.11328125 139.16796875 C67.00105759 139.17129715 67.88883392 139.17462555 68.80351257 139.17805481 C70.68044518 139.18311226 72.55738676 139.1854635 74.43432617 139.18530273 C77.29165656 139.18748409 80.14859751 139.20563816 83.00585938 139.22460938 C84.83333202 139.22754465 86.66080649 139.22952855 88.48828125 139.23046875 C89.33642899 139.23765427 90.18457672 139.24483978 91.0584259 139.25224304 C96.92894197 139.22987352 102.43838656 139.11779753 107.1631012 135.21166992 C110.07150063 130.12656726 109.56971577 125.07411722 109.54589844 119.31518555 C109.56140495 117.38288338 109.56140495 117.38288338 109.57722473 115.4115448 C109.60506046 111.8870742 109.60848998 108.36295467 109.60750484 104.83839011 C109.61063608 101.15209342 109.63625861 97.46595436 109.65948486 93.77973938 C109.70003243 86.80296241 109.72038259 79.82627889 109.73345876 72.84940225 C109.74933306 64.90497642 109.78775045 56.96070951 109.82805204 49.0163759 C109.91043404 32.67760688 109.96156089 16.33894047 110 0 C125.18 0 140.36 0 156 0 C156.0453442 16.24787377 156.08210315 32.49569258 156.10362434 48.74361229 C156.11388761 56.28971007 156.12785184 63.83576542 156.15087891 71.38183594 C156.17096589 77.96763155 156.18375228 84.55339639 156.18817699 91.13922179 C156.19075878 94.61851226 156.19672046 98.09771481 156.21146011 101.57697678 C156.38078977 143.27735861 156.38078977 143.27735861 149 157 C148.65324219 157.67289063 148.30648437 158.34578125 147.94921875 159.0390625 C143.22447161 166.8391905 134.08734594 171.13870287 125.58203125 173.4921875 C119.52022943 174.68437243 113.60070701 175.12801438 107.42919922 175.16113281 C106.71900131 175.16609772 106.00880341 175.17106262 105.27708435 175.17617798 C102.95294179 175.1906504 100.62886752 175.19757744 98.3046875 175.203125 C97.10074026 175.20736607 97.10074026 175.20736607 95.87247086 175.21169281 C91.62233407 175.2266269 87.37223071 175.23589207 83.12207031 175.24023438 C78.77180852 175.24570169 74.42186241 175.26970951 70.07169914 175.29820633 C66.69126543 175.316995 63.31090521 175.32204691 59.93042374 175.32357025 C58.3287293 175.3265623 56.72703505 175.33447125 55.12539291 175.34775543 C39.91454571 175.46488506 24.16537665 174.3528003 11.875 164.25390625 C0.33937785 152.29564277 -0.32121258 134.98897051 -0.22705078 119.31518555 C-0.22734283 118.01606232 -0.22763489 116.71693909 -0.22793579 115.37844849 C-0.22850306 111.8606781 -0.21685181 108.34304773 -0.20278788 104.82530951 C-0.19017458 101.13247395 -0.18910175 97.43963418 -0.18673706 93.7467804 C-0.18055312 86.77377885 -0.16418468 79.80084099 -0.14403808 72.82786733 C-0.12158225 64.88093041 -0.11066145 56.93399025 -0.10064721 48.98702943 C-0.07981523 32.6579766 -0.04317823 16.32901136 0 0 Z " fill="#EAEAEA" transform="translate(181,55)"/>
<path d="M0 0 C2.13519152 0.00373645 4.27038476 0.00658043 6.40557861 0.00857544 C11.98845263 0.01616216 17.57122033 0.03576735 23.15405273 0.0579834 C28.86570803 0.07854943 34.57738074 0.08760003 40.2890625 0.09765625 C51.4688039 0.1190185 62.64843892 0.1541595 73.828125 0.1953125 C73.828125 11.7453125 73.828125 23.2953125 73.828125 35.1953125 C68.13433594 35.23269531 62.44054687 35.27007812 56.57421875 35.30859375 C52.96025658 35.33888112 49.3463432 35.37003398 45.73242188 35.40429688 C40.00026953 35.45856011 34.26821371 35.50967259 28.53588867 35.54174805 C23.91269216 35.56781824 19.28982093 35.60824694 14.66682625 35.65849876 C12.90589517 35.67514236 11.14490785 35.68667223 9.38390923 35.69292641 C6.91111279 35.70259491 4.43914388 35.73068612 1.96655273 35.76293945 C1.24366058 35.76150436 0.52076843 35.76006927 -0.22402954 35.7585907 C-5.30414175 35.85188214 -8.74704945 36.85579621 -13.171875 39.1953125 C-16.14564966 43.46783772 -16.58066587 47.05910042 -16.546875 52.1953125 C-16.55460937 53.3709375 -16.56234375 54.5465625 -16.5703125 55.7578125 C-16.10736482 59.7518709 -15.578902 61.94905387 -13.171875 65.1953125 C-6.25658445 68.8893113 1.38176685 68.62096111 9.0078125 68.6015625 C10.880634 68.61781677 10.880634 68.61781677 12.79129028 68.63439941 C16.76191064 68.66850728 20.73239187 68.68483086 24.703125 68.6953125 C29.92990743 68.7091366 35.15620373 68.74377002 40.3828125 68.7890625 C41.56648407 68.78604126 42.75015564 68.78302002 43.96969604 68.77990723 C55.24908202 68.88071554 66.66134473 70.90950084 75.453125 78.4453125 C84.57329272 89.0055067 87.94793815 98.14262934 88.03125 112.234375 C88.03695007 112.99648285 88.04265015 113.7585907 88.04852295 114.54379272 C88.05793104 116.15239086 88.06449017 117.76100791 88.06835938 119.36962891 C88.07801357 121.79234842 88.10905481 124.21419964 88.140625 126.63671875 C88.23755065 140.67398719 86.74305386 153.32718791 77.01171875 164.23046875 C65.8097785 174.88928463 50.3784633 175.56747937 35.703125 175.5078125 C35.01113007 175.50698669 34.31913513 175.50616089 33.60617065 175.50531006 C17.85040478 175.46356478 2.12142671 174.64232408 -13.609375 173.8203125 C-14.83231262 173.75727936 -16.05525024 173.69424622 -17.31524658 173.62930298 C-31.6617171 172.8782198 -45.89946888 171.84405856 -60.171875 170.1953125 C-60.171875 158.9753125 -60.171875 147.7553125 -60.171875 136.1953125 C-45.94622376 136.64454359 -31.72455325 137.12312394 -17.50390625 137.70703125 C-16.40326843 137.75204773 -15.30263062 137.79706421 -14.16864014 137.84344482 C-8.63781789 138.07015993 -3.10715994 138.3002214 2.42333984 138.53466797 C21.78229154 140.73124359 21.78229154 140.73124359 39.828125 136.1953125 C42.00913646 132.91499718 42.12804538 129.99801973 42.2421875 126.1171875 C42.28085938 124.95703125 42.31953125 123.796875 42.359375 122.6015625 C42.3903125 121.395 42.42125 120.1884375 42.453125 118.9453125 C42.49179688 117.72328125 42.53046875 116.50125 42.5703125 115.2421875 C42.66454608 112.2267131 42.75015955 109.21124422 42.828125 106.1953125 C41.57144012 106.20530525 41.57144012 106.20530525 40.28936768 106.21549988 C32.34641913 106.27591825 24.40354913 106.3214418 16.46042252 106.35074902 C12.37797392 106.36632328 8.29571715 106.3874084 4.21337891 106.42163086 C0.26463722 106.45452157 -3.68392138 106.47222725 -7.63278961 106.47994423 C-9.13008755 106.48543498 -10.62737688 106.49615501 -12.12459564 106.51250267 C-26.08782279 106.65872856 -39.17265279 105.30573225 -49.984375 95.6953125 C-53.89622996 91.22462112 -56.7470316 87.43101641 -58.859375 81.8203125 C-59.48392578 80.19996094 -59.48392578 80.19996094 -60.12109375 78.546875 C-65.43056347 61.61183775 -64.70661578 35.57413089 -56.8515625 19.4921875 C-50.97110925 9.78783296 -42.67456537 4.34216644 -31.81365967 1.59988403 C-21.28834487 -0.42779093 -10.67052365 -0.05514937 0 0 Z " fill="#EAEAEA" transform="translate(69.171875,54.8046875)"/>
<path d="M0 0 C0.88602402 0.00222061 1.77204803 0.00444122 2.68492126 0.00672913 C3.68588333 0.00680466 4.6868454 0.00688019 5.71813965 0.00695801 C6.80666733 0.01211929 7.89519501 0.01728058 9.01670837 0.02259827 C10.67928932 0.02472069 10.67928932 0.02472069 12.37545776 0.02688599 C15.93168281 0.03250418 19.48784596 0.04505977 23.04405212 0.05775452 C25.44834809 0.06276717 27.85264504 0.06733048 30.25694275 0.07142639 C36.16516716 0.08247952 42.07335522 0.09923535 47.98155212 0.12025452 C53.47025844 13.66481405 58.73876685 27.28113829 63.87452698 40.96318054 C66.04784503 46.75282748 68.228059 52.53987882 70.40733337 58.32728577 C70.86119919 59.53311813 71.315065 60.7389505 71.78268433 61.98132324 C76.46264587 74.40985358 81.17630379 86.82551653 85.89183044 99.24058533 C92.5738707 116.83496682 99.24958212 134.43170637 105.86763 152.05027771 C106.5215757 153.79105875 107.17604695 155.53164247 107.83106995 157.27201843 C108.71368441 159.6179231 109.59411619 161.96463324 110.47373962 164.31166077 C110.86100975 165.33981903 110.86100975 165.33981903 111.25610352 166.38874817 C112.98155212 171.00529218 112.98155212 171.00529218 112.98155212 172.12025452 C96.81155212 172.12025452 80.64155212 172.12025452 63.98155212 172.12025452 C60.00512586 162.57683149 56.42248223 152.86955649 52.98155212 143.12025452 C33.18155212 143.12025452 13.38155212 143.12025452 -7.01844788 143.12025452 C-10.31844788 152.03025452 -13.61844788 160.94025452 -17.01844788 170.12025452 C-17.34844788 170.78025452 -17.67844788 171.44025452 -18.01844788 172.12025452 C-34.18844788 172.12025452 -50.35844788 172.12025452 -67.01844788 172.12025452 C-65.28250439 166.91242405 -63.5583851 161.76289007 -61.65516663 156.62416077 C-61.43119705 156.01907181 -61.20722748 155.41398285 -60.97647095 154.79055786 C-60.22156788 152.75389809 -59.4639677 150.7182562 -58.70594788 148.68275452 C-58.43544617 147.95505859 -58.16494446 147.22736267 -57.88624573 146.47761536 C-49.7488683 124.59730522 -41.4249068 102.78693635 -33.13505554 80.96408081 C-28.64647683 69.14574699 -24.17317003 57.32167484 -19.70594788 45.49525452 C-19.35697449 44.57186279 -19.0080011 43.64847107 -18.64845276 42.69709778 C-15.41971244 34.15355622 -12.19431 25.60893902 -9.00672913 17.04994202 C-8.57594055 15.89445862 -8.14515198 14.73897522 -7.7013092 13.54847717 C-6.9445994 11.51527837 -6.19029678 9.48118103 -5.43910217 7.44593811 C-5.12497375 6.60111877 -4.81084534 5.75629944 -4.48719788 4.88587952 C-4.22358459 4.17206116 -3.95997131 3.4582428 -3.68836975 2.72279358 C-2.72992003 0.43005891 -2.53933688 0.15128789 0 0 Z M21.98155212 55.12025452 C19.63286019 62.01271924 17.2857942 68.90573532 14.94082642 75.79946804 C13.85201742 79.00017786 12.76264046 82.20069204 11.67198181 85.40077209 C10.41933161 89.07622875 9.1691223 92.75251326 7.91905212 96.42884827 C7.5253241 97.58299728 7.13159607 98.7371463 6.72593689 99.92626953 C6.36556335 100.98729385 6.00518982 102.04831818 5.63389587 103.14149475 C5.15424377 104.55047279 5.15424377 104.55047279 4.66490173 105.98791504 C3.93068859 107.90577687 3.93068859 107.90577687 3.98155212 109.12025452 C16.52155212 109.12025452 29.06155212 109.12025452 41.98155212 109.12025452 C40.12530212 103.55150452 38.26905212 97.98275452 36.35655212 92.24525452 C32.23155212 79.87025452 28.10655212 67.49525452 23.98155212 55.12025452 C23.32155212 55.12025452 22.66155212 55.12025452 21.98155212 55.12025452 Z " fill="#EAEAEA" transform="translate(595.0184478759766,54.87974548339844)"/>
<path d="M0 0 C48.84 0 97.68 0 148 0 C148 11.55 148 23.1 148 35 C130.84 35 113.68 35 96 35 C96 80.21 96 125.42 96 172 C81.15 172 66.3 172 51 172 C51 126.79 51 81.58 51 35 C34.17 35 17.34 35 0 35 C0 23.45 0 11.9 0 0 Z " fill="#E9E9E9" transform="translate(693,55)"/>
<path d="M0 0 C29.37 0 58.74 0 89 0 C89 11.55 89 23.1 89 35 C81.74 35 74.48 35 67 35 C67 68.66 67 102.32 67 137 C74.26 137 81.52 137 89 137 C89 148.55 89 160.1 89 172 C59.63 172 30.26 172 0 172 C0 160.45 0 148.9 0 137 C7.26 137 14.52 137 22 137 C22 103.34 22 69.68 22 35 C14.74 35 7.48 35 0 35 C0 23.45 0 11.9 0 0 Z " fill="#E9E9E9" transform="translate(1259,55)"/>
</svg>
